<svg width="34" height="30" viewBox="0 0 34 30" fill="none" xmlns="http://www.w3.org/2000/svg">
<path d="M29.6867 4.29859C28.9537 3.56987 28.0833 2.9918 27.1254 2.5974C26.1675 2.203 25.1407 2 24.1038 2C23.0669 2 22.0402 2.203 21.0822 2.5974C20.1243 2.9918 19.254 3.56987 18.5209 4.29859L16.9996 5.81023L15.4783 4.29859C13.9976 2.82732 11.9894 2.00076 9.89541 2.00076C7.80142 2.00076 5.79319 2.82732 4.31251 4.29859C2.83184 5.76986 2 7.76534 2 9.84603C2 11.9267 2.83184 13.9222 4.31251 15.3935L5.83382 16.9051L16.9996 28L28.1654 16.9051L29.6867 15.3935C30.4201 14.6651 31.0019 13.8003 31.3988 12.8484C31.7957 11.8966 32 10.8764 32 9.84603C32 8.81571 31.7957 7.79548 31.3988 6.84363C31.0019 5.89178 30.4201 5.02697 29.6867 4.29859Z" stroke="#FAFAFA" stroke-width="2.91355" stroke-linecap="round" stroke-linejoin="round"/>
</svg>
